<svg xmlns="http://www.w3.org/2000/svg" width="127" height="17" viewBox="0 0 127 17" fill="none">
  <path d="M121.029 1.28696C117.763 1.28696 114.534 3.31513 114.534 6.59758C114.534 8.68506 115.795 9.87112 116.559 9.87112C116.874 9.87112 117.056 9.05274 117.056 8.82145C117.056 8.54569 116.301 7.95859 116.301 6.81107C116.301 4.42707 118.25 2.73692 120.771 2.73692C122.94 2.73692 124.544 3.88445 124.544 5.99268C124.544 7.56719 123.866 10.5205 121.669 10.5205C120.876 10.5205 120.198 9.98676 120.198 9.22175C120.198 8.10092 121.039 7.01566 121.039 5.85925C121.039 3.89631 118.049 4.25213 118.049 6.62426C118.049 7.12241 118.116 7.67393 118.355 8.1276C117.916 9.88891 117.018 12.5131 117.018 14.3278C117.018 14.8882 117.104 15.4397 117.161 16.0001C117.269 16.1128 117.215 16.1009 117.381 16.0446C118.985 13.9986 118.928 13.5983 119.654 10.9208C120.045 11.6146 121.058 11.9883 121.86 11.9883C125.241 11.9883 126.76 8.9193 126.76 6.1528C126.76 3.20839 124.028 1.28696 121.029 1.28696Z" fill="#696969"/>
</svg>
