<svg xmlns="http://www.w3.org/2000/svg" width="127" height="17" viewBox="0 0 127 17" fill="none">
  <path d="M53.0399 4.49415C53.0501 4.6349 53.0501 4.77568 53.0501 4.91643C53.0501 9.20944 49.7328 14.156 43.6698 14.156C41.8019 14.156 40.0667 13.6231 38.6071 12.6982C38.8725 12.7283 39.1277 12.7384 39.4033 12.7384C40.9445 12.7384 42.3633 12.2257 43.4963 11.351C42.0469 11.3208 40.8322 10.3858 40.4138 9.09886C40.6179 9.129 40.822 9.14912 41.0364 9.14912C41.3324 9.14912 41.6284 9.10889 41.904 9.03855C40.3934 8.7369 39.2603 7.4299 39.2603 5.85144V5.81124C39.6992 6.05253 40.2096 6.20334 40.7506 6.22342C39.8625 5.64028 39.2808 4.64496 39.2808 3.51891C39.2808 2.91568 39.444 2.36272 39.7299 1.88012C41.3528 3.85069 43.7923 5.13758 46.5278 5.27835C46.4767 5.03706 46.4461 4.78574 46.4461 4.53438C46.4461 2.74476 47.9159 1.28696 49.743 1.28696C50.6922 1.28696 51.5496 1.67906 52.1519 2.31246C52.897 2.17171 53.6114 1.90024 54.2443 1.52825C53.9993 2.28232 53.4788 2.91571 52.7949 3.31784C53.4584 3.2475 54.1014 3.06649 54.6934 2.81517C54.2444 3.45859 53.683 4.03164 53.0399 4.49415Z" fill="#696969"/>
</svg>
