<svg xmlns="http://www.w3.org/2000/svg" width="17" height="17" viewBox="0 0 17 17" fill="none">
  <path d="M2.88053 14.2364H0.212521V5.59092H2.88053V14.2364ZM1.54509 4.41159C0.692131 4.41159 0 3.70053 0 2.84205C0 1.98357 0.692131 1.28696 1.54509 1.28696C2.39805 1.28696 3.09018 1.98357 3.09018 2.84205C3.09018 3.70053 2.39805 4.41159 1.54509 4.41159ZM12.8662 14.2364H10.2039V10.0278C10.2039 9.02484 10.1838 7.73857 8.81677 7.73857C7.42964 7.73857 7.21711 8.82829 7.21711 9.95558V14.2364H4.55198V5.59092H7.11085V6.77025H7.14819C7.5043 6.09098 8.37449 5.37413 9.6726 5.37413C12.3722 5.37413 12.869 7.16336 12.869 9.48732V14.2364H12.8662Z"/>
</svg>
