<svg xmlns="http://www.w3.org/2000/svg" viewBox="0 0 32 32">
 <path d="M28.028 9.925c0.019 0.265 0.019 0.53 0.019 0.795 0 8.081-6.244 17.392-17.657 17.392-3.516 0-6.782-1.003-9.53-2.744 0.5 0.057 0.98 0.076 1.499 0.076 2.901 0 5.572-0.965 7.704-2.612-2.728-0.057-5.015-1.817-5.802-4.239 0.384 0.057 0.768 0.095 1.172 0.095 0.557 0 1.114-0.076 1.633-0.208-2.843-0.568-4.976-3.028-4.976-5.999v-0.076c0.826 0.454 1.787 0.738 2.805 0.776-1.672-1.098-2.767-2.971-2.767-5.091 0-1.136 0.307-2.176 0.845-3.085 3.055 3.709 7.647 6.132 12.796 6.397-0.096-0.454-0.154-0.927-0.154-1.4 0-3.369 2.767-6.113 6.206-6.113 1.787 0 3.401 0.738 4.534 1.93 1.403-0.265 2.747-0.776 3.939-1.476-0.461 1.419-1.441 2.612-2.728 3.369 1.249-0.132 2.459-0.473 3.574-0.946-0.845 1.211-1.902 2.29-3.112 3.16z"></path>
</svg>

